<?xml version="1.0" standalone="no"?>
<!DOCTYPE svg PUBLIC "-//W3C//DTD SVG 20010904//EN"
 "http://www.w3.org/TR/2001/REC-SVG-20010904/DTD/svg10.dtd">
<svg version="1.0" xmlns="http://www.w3.org/2000/svg"
 width="300.000000pt" height="224.000000pt" viewBox="0 0 300.000000 224.000000"
 preserveAspectRatio="xMidYMid meet">
<metadata>
Created by potrace 1.10, written by Peter Selinger 2001-2011
</metadata>
<g transform="translate(0.000000,224.000000) scale(0.100000,-0.100000)"
fill="#000000" stroke="none">
<path d="M1440 1883 c0 -5 0 -178 0 -387 l0 -378 -32 27 c-18 15 -196 170
-396 344 -200 174 -368 316 -373 316 -5 0 -8 -4 -7 -10 2 -8 524 -467 745
-655 l41 -35 -514 3 c-460 3 -514 2 -514 -12 0 -14 56 -16 510 -18 l509 -3
-394 -338 c-217 -186 -395 -343 -395 -348 0 -5 4 -9 8 -9 5 0 189 155 411 345
l402 346 -3 -386 c-2 -303 0 -385 10 -385 9 0 12 84 12 387 l0 387 48 -45 c26
-25 135 -122 242 -215 107 -94 266 -231 352 -307 94 -82 160 -132 164 -126 3
6 0 17 -7 24 -12 11 -661 573 -747 647 l-33 28 541 0 c429 0 541 3 537 13 -3
9 -120 12 -541 12 l-537 0 24 20 c13 11 192 164 398 339 206 176 376 321 378
323 3 2 0 8 -5 13 -6 6 -153 -114 -409 -333 l-400 -343 -3 383 c-1 244 -6 383
-12 383 -6 0 -10 -3 -10 -7z"/>
</g>
</svg>
