<?xml version="1.0" standalone="no"?>
<!DOCTYPE svg PUBLIC "-//W3C//DTD SVG 20010904//EN"
 "http://www.w3.org/TR/2001/REC-SVG-20010904/DTD/svg10.dtd">
<svg version="1.0" xmlns="http://www.w3.org/2000/svg"
 width="500.000000pt" height="500.000000pt" viewBox="0 0 500.000000 500.000000"
 preserveAspectRatio="xMidYMid meet">
<metadata>
Created by potrace 1.14, written by Peter Selinger 2001-2017
</metadata>
<g transform="translate(0.000000,500.000000) scale(0.100000,-0.100000)"
fill="#000000" stroke="none">
<path d="M2435 4423 c-218 -36 -411 -163 -531 -352 l-39 -60 -65 6 c-86 9
-235 9 -285 1 -269 -47 -450 -202 -532 -456 -33 -100 -42 -274 -20 -377 17
-79 22 -68 -68 -139 -190 -149 -305 -368 -300 -571 7 -217 144 -455 336 -582
44 -29 43 -22 23 -143 -6 -37 -5 -220 2 -255 53 -302 220 -490 500 -564 67
-18 101 -20 205 -17 68 2 147 10 176 18 l52 15 27 -41 c68 -103 236 -244 355
-299 110 -50 267 -67 384 -40 185 41 360 165 463 326 37 57 37 58 77 52 22 -4
85 -8 140 -10 403 -13 700 253 720 645 4 76 -5 183 -21 244 -4 17 10 32 72 81
151 118 249 250 301 405 38 114 38 219 -2 374 -13 53 -90 189 -142 250 -51 61
-128 128 -201 176 -23 15 -23 18 -14 85 21 155 -1 346 -54 474 -67 161 -231
298 -424 356 -78 24 -268 30 -353 13 l-67 -15 -42 56 c-120 161 -293 285 -452
325 -60 15 -179 25 -221 19z m263 -329 c52 -25 160 -122 182 -164 7 -13 -11
-29 -86 -79 -119 -79 -368 -266 -594 -446 -96 -77 -177 -142 -180 -145 -6 -6
-106 -88 -132 -109 -15 -11 -14 -2 8 60 13 41 47 146 75 234 28 88 57 178 64
200 7 22 19 40 26 40 8 0 61 -12 119 -27 58 -15 110 -27 115 -27 6 -1 35 22
65 49 30 28 85 76 122 107 36 32 65 59 63 61 -3 3 -238 67 -280 77 -11 2 -31
6 -44 9 -13 3 -26 8 -29 11 -9 9 116 123 158 145 105 54 243 55 348 4z m-950
-343 c18 -1 22 -5 18 -19 -9 -26 -63 -353 -76 -452 -6 -47 -12 -101 -15 -120
-2 -19 -7 -55 -10 -80 -2 -25 -9 -85 -15 -135 -15 -130 -19 -165 -24 -215 -3
-25 -8 -79 -12 -120 -5 -41 -8 -83 -7 -92 1 -38 -15 -13 -87 129 -41 81 -101
196 -132 256 -32 60 -58 111 -58 113 0 2 51 33 113 70 61 36 113 67 114 68 5
4 11 84 18 214 l7 122 -160 -95 c-89 -52 -164 -95 -167 -95 -13 0 7 165 26
216 24 63 102 153 166 190 79 47 126 54 301 45z m1715 -12 c89 -12 150 -44
213 -111 61 -65 88 -113 103 -190 11 -51 7 -189 -5 -209 -2 -4 -19 -3 -37 1
-39 11 -68 17 -177 36 -118 20 -141 24 -175 28 -96 13 -278 35 -325 41 -30 3
-93 10 -140 16 -95 11 -122 14 -230 25 -41 4 -79 8 -85 9 -5 1 -28 3 -50 3
-23 1 -35 6 -30 11 6 5 100 55 210 111 110 56 223 115 252 131 29 16 56 29 60
29 4 0 35 -47 68 -105 43 -76 66 -105 80 -106 11 0 36 -2 55 -4 19 -1 86 -6
147 -10 l113 -7 -33 59 c-18 32 -59 99 -89 150 -31 50 -55 93 -52 95 7 8 60 6
127 -3z m-878 -429 c264 -87 477 -159 479 -162 2 -2 74 -144 160 -317 l157
-313 -86 -262 c-47 -143 -93 -280 -101 -304 l-16 -43 -291 -146 -292 -145
-333 108 -333 109 -145 288 c-79 158 -144 293 -144 299 0 7 46 152 103 324
l102 312 295 150 c162 83 300 150 305 148 6 -2 69 -22 140 -46z m820 -269
c121 -39 239 -75 262 -81 23 -6 44 -14 46 -18 2 -4 -9 -58 -25 -121 -15 -63
-27 -118 -26 -123 5 -13 212 -247 216 -243 4 3 69 250 76 289 12 61 16 61 73
-1 100 -108 131 -210 107 -358 -10 -68 -62 -152 -133 -216 -68 -62 -86 -67
-105 -35 -68 119 -440 609 -683 898 -40 48 -73 90 -73 93 0 2 10 0 23 -5 12
-5 121 -41 242 -79z m-2252 -282 c102 -158 638 -851 681 -881 22 -15 -11 -8
-100 22 -49 17 -163 53 -254 82 -91 28 -170 54 -176 59 -7 6 -2 41 17 115 l28
106 -57 65 c-31 36 -82 92 -112 125 l-55 60 -39 -156 c-21 -86 -41 -156 -44
-156 -15 0 -96 101 -120 150 -23 47 -27 69 -28 148 -2 140 27 206 135 309 25
23 51 43 56 43 6 -1 36 -41 68 -91z m2362 -504 c48 -93 104 -202 125 -240 l39
-70 -104 -60 c-94 -54 -104 -63 -106 -90 0 -16 -2 -43 -4 -60 -7 -88 -14 -245
-10 -245 3 0 58 32 122 71 65 39 131 78 147 86 l28 15 -4 -89 c-3 -67 -10
-101 -29 -143 -44 -95 -145 -185 -241 -214 -45 -13 -201 -17 -213 -4 -4 4 -2
31 4 60 7 30 14 68 17 84 2 16 9 52 14 79 10 54 14 78 35 235 18 129 23 170
31 240 3 30 7 66 9 80 2 14 7 52 10 85 3 33 8 74 10 90 2 17 7 62 11 100 4 39
8 79 9 90 1 11 3 33 4 49 0 16 3 27 5 25 2 -2 43 -80 91 -174z m-365 -437
c-13 -33 -150 -464 -155 -489 -9 -44 -17 -59 -32 -59 -9 0 -69 14 -135 31
l-118 31 -43 -34 c-23 -18 -46 -38 -52 -44 -5 -7 -43 -40 -84 -74 l-73 -63 28
-12 c16 -6 100 -29 187 -50 l158 -38 -43 -44 c-65 -67 -145 -111 -216 -121
-158 -22 -280 26 -383 150 l-50 60 103 70 c174 120 627 470 846 655 34 29 64
53 67 53 2 0 0 -10 -5 -22z m-1787 -88 c56 -11 120 -23 142 -26 22 -3 85 -12
140 -20 55 -8 115 -17 135 -19 19 -2 51 -7 70 -9 50 -8 140 -18 175 -21 17 -2
53 -5 80 -9 51 -6 202 -22 310 -33 33 -3 70 -6 83 -6 12 -1 19 -4 15 -8 -5 -3
-100 -53 -213 -111 -113 -58 -230 -120 -262 -137 l-56 -31 -63 107 c-34 60
-62 109 -63 110 -1 1 -46 4 -101 7 -55 4 -128 9 -162 12 -41 4 -63 2 -63 -5 0
-6 40 -77 89 -158 100 -166 100 -161 -9 -157 -122 4 -184 26 -257 92 -112 102
-149 214 -129 387 2 17 4 38 5 49 1 12 6 16 16 12 9 -3 62 -15 118 -26z"/>
<path d="M2395 3035 c-125 -22 -223 -73 -315 -167 -105 -106 -159 -231 -165
-382 -3 -100 3 -127 25 -101 20 24 25 18 38 -45 12 -58 12 -62 -8 -78 l-21
-17 33 -65 c47 -92 152 -195 249 -243 42 -21 82 -39 90 -41 8 -1 41 -8 74 -15
126 -28 300 7 420 83 108 70 226 216 205 255 -5 11 -13 21 -18 23 -4 1 0 31
11 65 l19 62 21 -19 c11 -11 23 -18 25 -15 11 11 9 190 -3 236 -7 27 -13 50
-12 52 1 1 -9 30 -23 65 -28 71 -102 170 -170 227 -47 40 -158 96 -225 114
-62 16 -173 19 -250 6z"/>
</g>
</svg>
